# xmcd
#
# Track frame offsets: 
#        150
#        22331
#        37954
#        56626
#        72026
#        87045
#        99506
#        120798
#        129641
#        151162
#        170273
#        185130
#        200787
#
# Disc length: 3046 seconds
#
# Revision: 0
# Processed by: cddbd v1.5.2PL0 Copyright (c) Steve Scherf et al.
# Submitted via: ExactAudioCopyFreeDBPlugin 1.0
#
DISCID=aa0be40d
DTITLE=Křížková Hana - Zpověď
DYEAR=2002
DGENRE=Blues
TTITLE0=Všichni Svatý
TTITLE1=Ipanema
TTITLE2=Jsi Moje Prokletí
TTITLE3=Harlekýn
TTITLE4=Na Tebe Přísahám
TTITLE5=Pomalu A Líně
TTITLE6=Já Jsem Z Toho Venku 
TTITLE7=Adam Cáluje Band 
TTITLE8=Giorgia, On My Mind 
TTITLE9=Ospalý Svítání
TTITLE10=Lampa
TTITLE11=Nádraží 
TTITLE12=Zpověď
EXTD=
EXTT0=
EXTT1=
EXTT2=
EXTT3=
EXTT4=
EXTT5=
EXTT6=
EXTT7=
EXTT8=
EXTT9=
EXTT10=
EXTT11=
EXTT12=
PLAYORDER=
